<svg version="1.1" xmlns="http://www.w3.org/2000/svg" xmlns:xlink="http://www.w3.org/1999/xlink" width="512.000000pt" height="512.000000pt" viewBox="0,0,256,256"><g fill="#c9ddff" fill-rule="nonzero" stroke="none" stroke-width="1" stroke-linecap="butt" stroke-linejoin="miter" stroke-miterlimit="10" stroke-dasharray="" stroke-dashoffset="0" font-family="none" font-weight="none" font-size="none" text-anchor="none" style="mix-blend-mode: normal"><g transform="translate(0,0)"><g><g transform="translate(0,0.06462) scale(0.5,0.5)"><g transform="translate(0,512) scale(0.1,-0.1)"><path d="M275,5106c-111,-35 -190,-104 -239,-206l-31,-65v-570v-570l33,-67c40,-82 119,-157 200,-190l57,-23l840,-3c603,-2 857,0 900,8c160,31 274,145 305,305c8,42 10,216 8,580c-3,517 -3,520 -26,577c-33,81 -108,160 -190,200l-67,33l-875,2c-688,2 -884,-1 -915,-11zM2014,4778c14,-20 16,-85 16,-515c0,-480 -1,-494 -20,-513c-20,-20 -33,-20 -833,-20c-719,0 -815,2 -835,16l-22,15v501c0,453 2,503 17,520c15,17 54,18 839,18h823z"></path><path d="M3049,5106c-106,-28 -209,-121 -251,-224l-23,-57l-3,-1160c-2,-838 0,-1177 8,-1220c31,-160 145,-274 305,-305c43,-8 297,-10 900,-8l840,3l57,23c81,33 160,108 200,190l33,67v1210v1210l-31,65c-40,84 -100,144 -182,183l-67,32l-870,2c-667,1 -881,-1 -916,-11zM4782,4783c17,-15 18,-64 18,-1159v-1143l-22,-15c-20,-14 -116,-16 -835,-16c-800,0 -813,0 -833,20c-20,20 -20,33 -20,1153c0,1009 2,1135 16,1155l15,22h821c750,0 823,-1 840,-17z"></path><path d="M300,2979c-112,-22 -217,-107 -268,-217l-27,-57v-1210v-1210l31,-65c39,-83 101,-145 184,-184l65,-31h890h890l67,33c82,40 157,119 190,200l23,57l3,1160c2,838 0,1177 -8,1220c-30,157 -142,271 -298,304c-64,13 -1672,14 -1742,0zM2010,2650c20,-20 20,-33 20,-1153c0,-1009 -2,-1135 -16,-1155l-15,-22h-821c-750,0 -823,1 -840,17c-17,15 -18,64 -18,1159v1143l22,15c20,14 116,16 835,16c800,0 813,0 833,-20z"></path><path d="M3065,1696c-150,-37 -255,-148 -285,-301c-8,-42 -10,-215 -8,-580c3,-517 3,-520 26,-577c33,-81 108,-160 190,-200l67,-33h890h890l67,32c82,39 142,99 182,183l31,65v570v570l-33,67c-40,82 -119,157 -200,190l-57,23l-855,2c-649,1 -867,-1 -905,-11zM4778,1374l22,-15v-501c0,-453 -2,-503 -17,-520c-15,-17 -54,-18 -839,-18h-823l-15,22c-14,20 -16,85 -16,515c0,480 1,494 20,513c20,20 33,20 833,20c719,0 815,-2 835,-16z"></path></g></g></g></g></g></svg>