<?xml version="1.0" encoding="UTF-8"?>
<svg version="1.1" xmlns="http://www.w3.org/2000/svg" width="1024" height="1024">
<path d="M0 0 C337.92 0 675.84 0 1024 0 C1024 337.92 1024 675.84 1024 1024 C686.08 1024 348.16 1024 0 1024 C0 686.08 0 348.16 0 0 Z " fill="#1B3AA5" transform="translate(0,0)"/>
<path d="M0 0 C15.79875 -0.061875 31.5975 -0.12375 47.875 -0.1875 C52.82741699 -0.21481201 57.77983398 -0.24212402 62.88232422 -0.27026367 C69.02172852 -0.28381348 69.02172852 -0.28381348 71.91360474 -0.28633118 C73.89450108 -0.29087907 75.87539016 -0.30130475 77.85623169 -0.31672668 C100.57085117 -0.48442907 123.24591702 0.78366616 140.9609375 16.76953125 C151.91846082 28.13377487 154.49655057 43.10688686 154.25 58.28515625 C153.44522903 70.24354988 149.04939225 81.83013831 140 90 C135.54267461 93.06573569 130.851668 95.61888183 126 98 C126.6290625 98.32871094 127.258125 98.65742188 127.90625 98.99609375 C135.66534594 103.30800098 142.66734366 108.60183277 145.875 117.1875 C149.39336756 131.1022587 149.36745577 145.13035637 149.53173828 159.37744141 C149.5654227 162.03566429 149.61046797 164.6935249 149.65625 167.3515625 C149.66416565 168.5671434 149.66416565 168.5671434 149.67224121 169.80728149 C149.70980871 175.23743788 149.70980871 175.23743788 152 180 C152.99 180.66 153.98 181.32 155 182 C155 183.98 155 185.96 155 188 C141.14 188 127.28 188 113 188 C110.15949945 178.53166484 108.87211201 170.7158198 108.859375 161.0390625 C108.84105125 159.33331993 108.82148134 157.62759038 108.80078125 155.921875 C108.77186711 153.27353625 108.75000019 150.62604586 108.74951172 147.97753906 C109.12009589 133.5614308 109.12009589 133.5614308 103 121 C95.85051073 115.85165489 88.78279571 115.26230408 80.2109375 115.29296875 C78.63372925 115.27103455 78.63372925 115.27103455 77.0246582 115.24865723 C73.14166904 115.20171384 69.25826124 115.19701836 65.375 115.1875 C52.319375 115.0946875 52.319375 115.0946875 39 115 C39 139.09 39 163.18 39 188 C26.13 188 13.26 188 0 188 C0 125.96 0 63.92 0 0 Z " fill="#FCFCFD" transform="translate(56,391)"/>
<path d="M0 0 C15.984375 -0.0825 31.96875 -0.165 48.4375 -0.25 C53.45122803 -0.28641602 58.46495605 -0.32283203 63.63061523 -0.36035156 C69.8380127 -0.37841797 69.8380127 -0.37841797 72.76039124 -0.3817749 C74.76551382 -0.38784548 76.77062347 -0.40176131 78.77565002 -0.42230225 C98.74074438 -0.61629443 119.64772481 0.83018707 135 15.3125 C147.31811521 28.86471209 150.0346687 43.81208983 149.22070312 61.6003418 C148.28525361 71.77128567 143.6884891 82.14616942 136 89 C130.95206894 92.7097461 126.30569619 96.11058896 120 97 C120 97.66 120 98.32 120 99 C120.825 99.20625 121.65 99.4125 122.5 99.625 C130.08476913 102.60473073 135.9883875 107.9044604 140 115 C143.13441336 122.9094962 144.12782076 130.86427448 144.24609375 139.328125 C144.27904334 140.94922392 144.31225479 142.57031754 144.34570312 144.19140625 C144.39291894 146.71659605 144.43737142 149.24176611 144.47680664 151.76708984 C144.18148615 165.13657751 144.18148615 165.13657751 147 178 C147.99 178.66 148.98 179.32 150 180 C150.1875 183.625 150.1875 183.625 150 187 C144.21598128 187.12350083 138.4327279 187.21429191 132.64770508 187.2746582 C130.67947016 187.29981914 128.71132883 187.33395164 126.7434082 187.37719727 C123.91594381 187.4377807 121.08971318 187.46619307 118.26171875 187.48828125 C117.38037766 187.51408768 116.49903656 187.5398941 115.59098816 187.56648254 C113.29178753 187.56754065 111.24132075 187.51146681 109 187 C104.17123345 181.83797313 104.84530027 174.20035926 104.75390625 167.5234375 C104.72094471 165.8658806 104.68773348 164.20832864 104.65429688 162.55078125 C104.60717246 159.97090288 104.56274592 157.39104111 104.52319336 154.81103516 C105.23569767 136.62836177 105.23569767 136.62836177 98.77519226 120.51730347 C92.26102139 114.94947047 83.03998723 114.40046841 74.86328125 114.390625 C73.97008179 114.37499512 73.07688232 114.35936523 72.15661621 114.34326172 C68.8755075 114.29135118 65.59394208 114.27251576 62.3125 114.25 C54.949375 114.1675 47.58625 114.085 40 114 C40 138.09 40 162.18 40 187 C26.8 187 13.6 187 0 187 C0 125.29 0 63.58 0 0 Z " fill="#00CEDD" transform="translate(654,392)"/>
<path d="M0 0 C12.21 0 24.42 0 37 0 C37 62.04 37 124.08 37 188 C25.12 188 13.24 188 1 188 C1 182.39 1 176.78 1 171 C0.34 171 -0.32 171 -1 171 C-1.37511719 171.85464844 -1.37511719 171.85464844 -1.7578125 172.7265625 C-6.90952591 182.15517007 -16.50785744 187.37584855 -26.30859375 190.80859375 C-40.4302913 194.56574264 -56.03460625 191.39943828 -68.671875 184.453125 C-84.43460881 174.61464014 -92.0347872 160.7547068 -96.60546875 143.046875 C-98.2800817 135.59283106 -98.49686507 128.36710432 -98.4375 120.75 C-98.43445862 120.0712381 -98.43141724 119.3924762 -98.42828369 118.69314575 C-98.2849018 97.02113182 -93.05771952 77.03399762 -77.91015625 60.75390625 C-67.78981481 51.07278397 -54.7036475 46.01388949 -40.8125 45.5625 C-24.90442902 45.95089644 -12.37695255 50.62304745 -1 62 C-0.67 41.54 -0.34 21.08 0 0 Z " fill="#FDFDFE" transform="translate(463,391)"/>
<path d="M0 0 C6.84867048 6.41542125 10.96989331 15.36814997 11.49246216 24.73551941 C11.53291861 26.38352991 11.55830794 28.03196026 11.57080078 29.68041992 C11.58913971 30.58893204 11.60747864 31.49744415 11.62637329 32.43348694 C11.68329532 35.40741189 11.72051548 38.3812388 11.7578125 41.35546875 C11.79461007 43.43575956 11.8327893 45.51602635 11.87228394 47.5962677 C11.97278451 53.05338627 12.05716801 58.51062783 12.1373291 63.96807861 C12.26851013 72.71268259 12.42431845 81.45688031 12.58007431 90.2010746 C12.63205836 93.24875584 12.67719544 96.29647868 12.72122192 99.34428406 C12.75167605 101.21544613 12.78225799 103.08660612 12.81298828 104.95776367 C12.82338135 105.80102203 12.83377441 106.6442804 12.84448242 107.51309204 C12.91987463 111.78720623 12.99465964 115.96175733 14.0625 120.125 C16.52505685 121.57791273 16.52505685 121.57791273 19.0625 122.125 C19.0625 124.105 19.0625 126.085 19.0625 128.125 C6.1925 128.125 -6.6775 128.125 -19.9375 128.125 C-23.3125 118 -23.3125 118 -23.9375 114.125 C-24.99324219 114.97771484 -24.99324219 114.97771484 -26.0703125 115.84765625 C-41.63266674 128.01717347 -56.91870542 134.00161538 -76.9375 132.125 C-88.02440307 130.04694362 -96.45333211 125.75032375 -103.3125 116.75 C-110.20465191 106.65155873 -111.89201891 96.22453546 -110.9375 84.125 C-109.32185154 75.96366723 -106.69286374 69.18820878 -100.9375 63.125 C-100.36257813 62.51011719 -99.78765625 61.89523437 -99.1953125 61.26171875 C-86.07532107 48.55002581 -64.45942153 46.94296637 -47.19873047 44.69506836 C-40.55606058 43.76968343 -33.73895552 42.69737156 -27.9375 39.125 C-25.99812448 36.06366235 -25.66552251 33.72930816 -25.6875 30.125 C-25.68234375 29.279375 -25.6771875 28.43375 -25.671875 27.5625 C-25.96400486 24.88177891 -26.40712196 23.34452343 -27.9375 21.125 C-29.95689565 19.82345891 -29.95689565 19.82345891 -32.3125 18.9375 C-33.08335937 18.61394531 -33.85421875 18.29039062 -34.6484375 17.95703125 C-43.03362738 14.90917213 -53.4143544 14.45538836 -61.625 18.1875 C-68.5752566 22.27927627 -69.73806282 27.42696986 -71.9375 35.125 C-83.1575 35.125 -94.3775 35.125 -105.9375 35.125 C-105.9375 22.1058777 -103.18981346 10.81495306 -94.125 1.203125 C-71.32527395 -20.30951974 -23.89780047 -18.83167146 0 0 Z " fill="#FCFCFD" transform="translate(623.9375,450.875)"/>
<path d="M0 0 C6.09841669 5.54401517 9.11531061 11.84202557 11.67578125 19.5234375 C11.78582051 22.30978423 11.84030802 25.07242366 11.84936523 27.859375 C11.85605225 28.71021164 11.86273926 29.56104828 11.86962891 30.43766785 C11.88368404 32.28737962 11.89557662 34.13710878 11.90557671 35.98684692 C11.92200803 38.92220286 11.94525122 41.85743184 11.97047424 44.79272461 C12.04116012 53.13958371 12.10111616 61.48649692 12.15258789 69.83349609 C12.18455542 74.93988532 12.22588365 80.04613196 12.27278328 85.15240479 C12.28870787 87.09146534 12.30107296 89.03055874 12.30969048 90.96966553 C11.71386761 105.54531681 11.71386761 105.54531681 14.67578125 119.5234375 C16.66518457 120.83046 16.66518457 120.83046 18.67578125 121.5234375 C18.67578125 123.8334375 18.67578125 126.1434375 18.67578125 128.5234375 C6.13578125 128.5234375 -6.40421875 128.5234375 -19.32421875 128.5234375 C-20.7120546 125.05384788 -21.70396229 122.27752198 -22.44921875 118.7109375 C-22.61679687 117.92074219 -22.784375 117.13054687 -22.95703125 116.31640625 C-23.13878906 115.42888672 -23.13878906 115.42888672 -23.32421875 114.5234375 C-24.2678125 115.25949219 -25.21140625 115.99554687 -26.18359375 116.75390625 C-42.10567932 128.94825985 -57.26510648 134.05555523 -77.32421875 132.5234375 C-87.24117553 130.96860501 -96.44482055 125.64407171 -102.7890625 117.875 C-110.32642482 106.32921853 -112.06851131 93.2746634 -109.67578125 79.8984375 C-106.88964062 69.80165435 -101.8857557 62.32792054 -92.8671875 56.859375 C-78.04935627 49.07489223 -61.25912963 46.88603395 -44.85498047 44.64990234 C-34.56113542 43.24289741 -34.56113542 43.24289741 -26.32421875 37.5234375 C-24.46926819 33.81353638 -24.87712747 29.57280713 -25.32421875 25.5234375 C-27.88202358 20.71476443 -31.2896285 19.28996039 -36.32421875 17.5234375 C-43.8374405 15.67103972 -53.83570083 14.8531027 -61.01171875 18.2109375 C-68.14271617 22.67166965 -68.79258352 27.08465341 -71.32421875 35.5234375 C-83.20421875 35.5234375 -95.08421875 35.5234375 -107.32421875 35.5234375 C-104.48052275 19.40916018 -102.31217414 7.54783186 -89.32421875 -2.4765625 C-64.88463057 -17.51630907 -22.8960889 -18.67714084 0 0 Z " fill="#FDFDFE" transform="translate(334.32421875,450.4765625)"/>
<path d="M0 0 C13.41523474 10.45477399 22.30374178 24.96316473 24.75390625 41.9375 C26.29957161 61.17244668 24.49048477 80.78255872 11.609375 96.11328125 C11.07828125 96.73589844 10.5471875 97.35851562 10 98 C9.1028125 99.299375 9.1028125 99.299375 8.1875 100.625 C1.80925797 107.54994849 -6.09078362 111.35285264 -15 114 C-15.64195312 114.19335938 -16.28390625 114.38671875 -16.9453125 114.5859375 C-28.33118665 116.88042925 -40.17890229 114.65019282 -49.9375 108.5625 C-63.83787499 99.19075397 -72.59733354 85.79383463 -75.875 69.25 C-79.25164922 49.83954669 -76.53723735 31.82595512 -66 15 C-63.25611454 11.35246787 -60.30455009 8.14232672 -57 5 C-56.41476562 4.41863281 -55.82953125 3.83726563 -55.2265625 3.23828125 C-40.04640214 -10.90848791 -16.85234823 -11.89752049 0 0 Z " fill="#FBFCFD" transform="translate(935,60)"/>
<path d="M0 0 C22.8504969 19.34720006 38.2444238 44.57432757 41.83447266 74.55322266 C42.14423437 79.45265464 42.21635866 84.33225201 42.20947266 89.24072266 C42.20892883 89.89897034 42.20838501 90.55721802 42.20782471 91.2354126 C42.16728611 101.9346827 41.24428283 111.42968685 37.83447266 121.55322266 C37.62016602 122.21386719 37.40585937 122.87451172 37.18505859 123.55517578 C27.32188891 153.61846155 7.40864592 175.57494883 -20.10302734 190.67822266 C-20.80073242 191.06913086 -21.4984375 191.46003906 -22.21728516 191.86279297 C-26.68682611 194.21642282 -30.00166176 195.09244695 -35.16552734 194.55322266 C-38.10302734 193.11572266 -38.10302734 193.11572266 -40.16552734 190.55322266 C-41.14540512 187.30545167 -41.22515809 184.78847823 -40.16552734 181.55322266 C-36.3878443 177.61666509 -31.28034846 175.60005623 -26.41552734 173.30322266 C-3.85596704 162.32073903 11.8038109 140.97541404 19.90356445 117.78955078 C27.85058417 94.6067066 25.66619548 68.43368429 15.03735352 46.51928711 C11.90382437 40.38497507 8.23359818 34.86222424 3.83447266 29.55322266 C2.7690625 28.26158203 2.7690625 28.26158203 1.68212891 26.94384766 C-13.59976846 9.21792101 -36.67600833 -3.24512289 -60.16552734 -5.44677734 C-87.95379626 -7.02441375 -112.89178882 -0.85823105 -134.16552734 17.55322266 C-134.97119141 18.15908203 -135.77685547 18.76494141 -136.60693359 19.38916016 C-148.92149311 29.8048334 -157.49249437 45.62109397 -162.00073242 60.86889648 C-163.45715286 65.53462176 -164.97902652 67.98142199 -169.16552734 70.55322266 C-173.17385711 71.30478449 -174.65492168 70.87914117 -178.10302734 68.67822266 C-180.66780712 64.7921927 -180.58855048 62.96401295 -179.86474609 58.47509766 C-173.2603822 30.87697366 -155.06871451 7.47387543 -131.16552734 -7.44677734 C-90.2260655 -32.07312189 -37.77225671 -30.34234089 0 0 Z " fill="#01C6DB" transform="translate(927.16552734375,305.44677734375)"/>
<path d="M0 0 C0.93457031 0.2784375 1.86914062 0.556875 2.83203125 0.84375 C14.47919509 4.70947534 24.87246233 10.8387326 34 19 C34.83273437 19.73863281 35.66546875 20.47726562 36.5234375 21.23828125 C46.15414267 30.29114411 53.38425799 41.612163 58 54 C58.5878125 55.53527344 58.5878125 55.53527344 59.1875 57.1015625 C64.91369229 74.71755682 63.87330465 95.85166696 57.1875 113.0625 C56.92251709 113.752229 56.65753418 114.44195801 56.38452148 115.15258789 C52.84766595 124.16175963 48.20230668 131.57223757 42 139 C41.319375 139.82757813 40.63875 140.65515625 39.9375 141.5078125 C24.93422596 159.02949326 2.67727583 169.24945697 -20 172 C-24.19297694 172.25328683 -28.36294944 172.2811655 -32.5625 172.25 C-33.60857422 172.25773438 -34.65464844 172.26546875 -35.73242188 172.2734375 C-52.74884191 172.23118692 -52.74884191 172.23118692 -59.1875 167.8125 C-61.53866462 164.1641411 -61.76150949 162.26445312 -61 158 C-59.3125 155 -59.3125 155 -56 153 C-52.97912905 152.89898361 -50.11636222 153.23903573 -47.11328125 153.5859375 C-21.90416067 156.40027236 -0.11168205 151.49439468 20.375 136.23046875 C32.4986123 126.23269819 41.64037378 110.53458338 44 95 C45.77370598 72.83558064 41.93826745 54.38556913 27.375 37.1875 C13.20191391 22.45095788 -6.09396462 15.02126427 -26.3125 14.625 C-45.28290397 14.6778777 -61.67903131 23.00836858 -75.1484375 36.0859375 C-82.1056973 43.46969598 -87.16762025 51.78796489 -90.125 61.5 C-91.23257744 65.08554729 -91.88581011 66.86778012 -94.375 69.75 C-97.61878356 71.29465884 -99.44800473 71.59199921 -103 71 C-105.875 69.6875 -105.875 69.6875 -108 67 C-110.44082736 57.52890227 -105.51231457 48.10259002 -101 40 C-88.33170518 19.08817148 -69.22356372 5.45565547 -45.8671875 -1.30859375 C-31.21931234 -4.84084702 -14.4091933 -4.36984686 0 0 Z " fill="#01C6DB" transform="translate(881,311)"/>
<path d="M0 0 C7.45733704 4.56153262 12.29158818 11.57486249 14.84741211 19.87841797 C16.39512801 26.32557166 16.59749768 32.57543801 16.5625 39.1875 C16.55404053 40.84857788 16.55404053 40.84857788 16.54541016 42.54321289 C16.35363161 55.45408668 14.62260557 66.95051063 5.515625 76.81640625 C-1.35015173 83.12016143 -8.89161807 83.47379765 -17.828125 83.25 C-22.91981975 82.84428727 -26.50969547 81.73504532 -30.75 78.9375 C-31.37132812 78.54820312 -31.99265625 78.15890625 -32.6328125 77.7578125 C-39.85924618 72.4709411 -44.21558312 62.60869339 -45.75 53.9375 C-46.76817489 41.0031601 -47.47625667 26.87815325 -41.75 14.9375 C-41.38777344 14.17953125 -41.02554687 13.4215625 -40.65234375 12.640625 C-32.62592871 -1.83413026 -15.05399873 -6.98689407 0 0 Z " fill="#1B38A3" transform="translate(447.75,470.0625)"/>
<path d="M0 0 C11.53205347 8.09414711 20.77515331 20.51854885 24.41015625 34.1875 C27.15857142 51.95209078 25.38711071 68.0325489 15 83 C14.47535156 83.77085937 13.95070313 84.54171875 13.41015625 85.3359375 C4.67677376 97.37773076 -8.59533211 105.50950719 -23 109 C-27.28726626 108.92733447 -29.22542584 108.69513065 -32.4375 105.8125 C-34.31263988 102.43724821 -34.71235686 100.7992366 -34 97 C-30.45027373 92.72298019 -26.83039468 90.83488815 -21.6875 89.0625 C-9.18964287 84.38184703 -0.64154364 76.62600878 5 64.43359375 C8.85289336 55.05721654 9.393034 45.21743405 6.1015625 35.54296875 C0.26252654 22.06349212 -8.70559994 14.66142479 -22 9 C-31.76283589 5.1861071 -43.4719738 5.88562505 -53 10 C-63.63022803 15.28309525 -69.66658991 21.37436581 -74.640625 32.1328125 C-78.07968127 39.38645418 -78.07968127 39.38645418 -82 42 C-85.76626089 42.41086482 -88.10534325 42.50467817 -91.4375 40.625 C-93.94717908 36.40873915 -93.84551386 32.77158211 -93 28 C-87.68003922 12.74275399 -74.29956766 0.08849997 -60 -7 C-40.09176262 -15.78464573 -17.88138104 -11.22454101 0 0 Z " fill="#01C6DB" transform="translate(892,345)"/>
<path d="M0 0 C12.4678125 -0.12375 12.4678125 -0.12375 25.1875 -0.25 C27.78391357 -0.28641602 30.38032715 -0.32283203 33.05541992 -0.36035156 C59.57834011 -0.5806537 59.57834011 -0.5806537 67.31518555 5.95605469 C72.52055996 11.29107136 74.28534411 16.89894313 74.3125 24.3125 C74.1474837 32.84481342 72.51733372 39.2450788 66.609375 45.5625 C61.33762557 50.27124706 55.28608624 51.12947561 48.4753418 51.11352539 C47.39459885 51.11344986 46.3138559 51.11337433 45.20036316 51.11329651 C44.0449855 51.10813522 42.88960785 51.10297394 41.69921875 51.09765625 C39.91195122 51.09553383 39.91195122 51.09553383 38.08857727 51.09336853 C34.28819249 51.08777728 30.48786693 51.07522632 26.6875 51.0625 C24.10872481 51.05748387 21.5299487 51.05292116 18.95117188 51.04882812 C12.63407349 51.03866221 6.31710292 51.0190849 0 51 C0 34.17 0 17.34 0 0 Z " fill="#1A37A3" transform="translate(96,424)"/>
<path d="M0 0 C8.37375 -0.0825 16.7475 -0.165 25.375 -0.25 C29.31058838 -0.30462402 29.31058838 -0.30462402 33.32568359 -0.36035156 C35.43325994 -0.37204715 37.5408454 -0.38223691 39.6484375 -0.390625 C40.72005127 -0.41108887 41.79166504 -0.43155273 42.89575195 -0.45263672 C50.53922184 -0.45614049 58.04672709 0.44026079 63.94393921 5.75042725 C69.00109025 11.23336325 70.37134849 16.40710976 70.3125 23.8125 C70.30831055 24.52446533 70.30412109 25.23643066 70.29980469 25.9699707 C70.15489992 32.69956371 68.80254858 36.89961644 65.4375 42.6875 C59.24792377 48.55966206 51.44751499 51.13574542 43.02612305 51.11352539 C41.56523254 51.11334412 41.56523254 51.11334412 40.0748291 51.11315918 C38.55858948 51.10548523 38.55858948 51.10548523 37.01171875 51.09765625 C35.60388123 51.09614563 35.60388123 51.09614563 34.16760254 51.09460449 C30.67422253 51.08938734 27.18085999 51.07542608 23.6875 51.0625 C15.870625 51.041875 8.05375 51.02125 0 51 C0 34.17 0 17.34 0 0 Z " fill="#1B38A4" transform="translate(694,425)"/>
<path d="M0 0 C7.55109147 5.59713625 13.96527118 12.16674769 16.52734375 21.421875 C17.86562551 31.40436444 15.55055626 40.40009087 9.83984375 48.671875 C4.97699884 54.68840506 -1.00039541 59.92495713 -8.84765625 60.796875 C-12.47265625 60.421875 -12.47265625 60.421875 -15.41015625 58.359375 C-17.99266963 54.68124988 -18.1939132 52.82955637 -17.47265625 48.421875 C-15.34491828 45.39394019 -13.87890933 44.55187599 -10.34765625 43.421875 C-7.4246059 42.72587784 -7.4246059 42.72587784 -6.28515625 40.671875 C-6.01703125 39.929375 -5.74890625 39.186875 -5.47265625 38.421875 C-4.93640625 37.514375 -4.40015625 36.606875 -3.84765625 35.671875 C-1.92693654 31.13199204 -1.50185931 27.12584615 -3.1640625 22.49609375 C-5.3923651 18.14204641 -8.00367057 15.57360885 -12.47265625 13.421875 C-17.24224016 12.29550746 -21.11115507 11.95947837 -25.78515625 13.546875 C-29.88531583 16.40745145 -32.78123858 19.03903966 -35.03515625 23.546875 C-36.56360427 26.60377105 -37.4528605 27.86883719 -40.47265625 29.421875 C-44.39986693 30.00677872 -45.95374168 29.76781805 -49.28515625 27.546875 C-51.70311579 25.19800002 -52.33606299 24.20240792 -52.91015625 20.921875 C-51.888204 12.74625697 -45.79106189 5.44846087 -39.47265625 0.421875 C-27.0349537 -7.69425293 -12.7552746 -8.14080717 0 0 Z " fill="#01C6DB" transform="translate(875.47265625,365.578125)"/>
<path d="M0 0 C1.01964844 -0.00773438 2.03929687 -0.01546875 3.08984375 -0.0234375 C7.40480872 0.55491523 10.02282847 2.33532847 13.0625 5.375 C13.84625 4.735625 14.63 4.09625 15.4375 3.4375 C19.93768533 -0.0983599 23.36631219 -0.07966942 29.00390625 -0.0390625 C32.98471612 0.49984663 34.91682794 1.83924107 37.7578125 4.57421875 C41.05312466 9.12253882 41.31029903 13.31098006 41.29296875 18.828125 C41.29251053 19.52895203 41.29205231 20.22977905 41.2915802 20.95184326 C41.28857256 22.42429307 41.2807311 23.89674013 41.26831055 25.36914062 C41.24994624 27.63162382 41.2478018 29.89369973 41.24804688 32.15625 C41.21008107 43.22741893 41.21008107 43.22741893 40.0625 44.375 C38.39820949 44.47323937 36.72968069 44.50473631 35.0625 44.5 C33.70125 44.50386719 33.70125 44.50386719 32.3125 44.5078125 C30.0625 44.375 30.0625 44.375 29.0625 43.375 C28.92819422 41.1809611 28.85885455 38.98289211 28.81640625 36.78515625 C28.78347071 35.43033201 28.75025902 34.07551446 28.71679688 32.72070312 C28.6693365 30.57662528 28.62490993 28.43257516 28.58569336 26.28833008 C28.54604506 24.22448201 28.4944861 22.16119634 28.44140625 20.09765625 C28.4163501 18.85765869 28.39129395 17.61766113 28.36547852 16.34008789 C28.36583897 13.25729587 28.36583897 13.25729587 26.0625 11.375 C21.50512173 10.86091455 21.50512173 10.86091455 17.37182617 12.46606445 C15.40558743 15.33274741 15.62349506 17.78383401 15.55078125 21.23046875 C15.53283005 21.89210526 15.51487885 22.55374176 15.49638367 23.23542786 C15.44229102 25.34438747 15.40839069 27.45312099 15.375 29.5625 C15.34182573 30.99417208 15.30733595 32.42581433 15.27148438 33.85742188 C15.18656743 37.3630639 15.11975079 40.86878473 15.0625 44.375 C13.25007948 44.40187279 11.43754767 44.42133715 9.625 44.4375 C8.61566406 44.44910156 7.60632813 44.46070313 6.56640625 44.47265625 C4.0625 44.375 4.0625 44.375 3.0625 43.375 C2.92819422 41.1809611 2.85885455 38.98289211 2.81640625 36.78515625 C2.78347071 35.43033201 2.75025902 34.07551446 2.71679688 32.72070312 C2.6693365 30.57662528 2.62490993 28.43257516 2.58569336 26.28833008 C2.54604506 24.22448201 2.4944861 22.16119634 2.44140625 20.09765625 C2.4163501 18.85765869 2.39129395 17.61766113 2.36547852 16.34008789 C2.36583897 13.25729587 2.36583897 13.25729587 0.0625 11.375 C-3.39536015 10.87492206 -3.39536015 10.87492206 -6.9375 11.375 C-9.37615327 13.68652636 -9.90571348 15.14590735 -10.36987305 18.49121094 C-10.39605713 19.68520508 -10.42224121 20.87919922 -10.44921875 22.109375 C-10.48466797 23.40488281 -10.52011719 24.70039062 -10.55664062 26.03515625 C-10.57973867 27.39843226 -10.60252114 28.76171364 -10.625 30.125 C-10.65818648 31.50393862 -10.69267738 32.8828465 -10.72851562 34.26171875 C-10.81102291 37.63273059 -10.88016771 41.00348128 -10.9375 44.375 C-14.5675 44.375 -18.1975 44.375 -21.9375 44.375 C-21.9375 30.185 -21.9375 15.995 -21.9375 1.375 C-18.3075 1.375 -14.6775 1.375 -10.9375 1.375 C-10.6075 2.035 -10.2775 2.695 -9.9375 3.375 C-9.13119141 2.64410156 -9.13119141 2.64410156 -8.30859375 1.8984375 C-5.34438138 -0.00608115 -3.49996464 -0.02648145 0 0 Z " fill="#02C1D7" transform="translate(676.9375,620.625)"/>
<path d="M0 0 C-1.22485005 27.78475629 -1.22485005 27.78475629 -10.1875 36.125 C-17.27410994 41.93144814 -25.5230033 44.41340495 -34.59375 44.27734375 C-40.26207989 43.62401352 -45.21045371 41.29046333 -49 37 C-51.73684211 32.89473684 -51.73684211 32.89473684 -52 30 C-52.1546875 28.39125 -52.1546875 28.39125 -52.3125 26.75 C-51.87129717 21.45556606 -50.27014445 17.45175601 -46.6328125 13.5234375 C-41.87127279 9.66208937 -36.15440974 8.23625932 -30.33398438 6.64794922 C-27.44855279 5.84690995 -24.57677249 5.00247614 -21.703125 4.16015625 C-19.42735493 3.50166478 -17.15131024 2.84412173 -14.875 2.1875 C-13.75947754 1.86088379 -12.64395508 1.53426758 -11.49462891 1.19775391 C-10.44194824 0.8991748 -9.38926758 0.6005957 -8.3046875 0.29296875 C-7.35577637 0.0199292 -6.40686523 -0.25311035 -5.42919922 -0.53442383 C-3 -1 -3 -1 0 0 Z " fill="#1B37A2" transform="translate(311,514)"/>
<path d="M0 0 C4.59053289 2.76419185 8.41988795 7.29918016 10.140625 12.3984375 C11.5755414 20.78957907 11.09951135 29.17036934 6.5 36.5 C4.36801364 38.64714266 2.17236786 40.1028031 -0.5 41.5 C-1.263125 41.933125 -2.02625 42.36625 -2.8125 42.8125 C-10.00304656 44.65194214 -17.95819129 44.14645263 -24.5 40.5 C-29.96527623 35.77524784 -33.02452671 31.04341143 -33.78125 23.8125 C-34.16262473 16.33755522 -32.9755474 10.59388748 -28.5 4.5 C-21.14610129 -2.48379002 -9.34299462 -4.11817433 0 0 Z " fill="#02C3D8" transform="translate(638.5,622.5)"/>
<path d="M0 0 C-0.73083979 27.73960961 -0.73083979 27.73960961 -8.7734375 36.17578125 C-16.37380721 42.40275082 -25.12898491 45.39810736 -34.91796875 45.2109375 C-40.233154 44.67243843 -44.44091396 43.04699336 -47.9375 38.9375 C-51.81337266 33.41731772 -51.5530814 28.62846789 -51 22 C-50.31237855 18.89149642 -49.25081395 17.23313565 -47 15 C-38.79733137 9.86715866 -29.84036443 7.18481786 -20.58764648 4.70214844 C-18.40559143 4.11643501 -16.22906594 3.5128523 -14.05273438 2.90625 C-3.50080315 0 -3.50080315 0 0 0 Z " fill="#1B37A2" transform="translate(600,513)"/>
<path d="M0 0 C5.64203344 3.48334239 8.6016618 7.99720473 10.375 14.375 C11.18646647 21.98013928 11.23883642 29.15381388 6.375 35.375 C1.54349106 40.38220018 -2.05963093 42.47433113 -9.17285156 42.71826172 C-20.99415541 42.89361196 -20.99415541 42.89361196 -26.1484375 38.86328125 C-31.76259045 33.20457153 -33.70592958 27.30266836 -34 19.5 C-33.86133414 12.90929307 -32.51000509 8.3714712 -27.90625 3.58984375 C-20.67901139 -2.8871095 -8.94417847 -4.13732632 0 0 Z " fill="#02C2D8" transform="translate(544.625,622.625)"/>
<path d="M0 0 C5.60408993 2.36303985 8.84765399 7.05987317 11.45703125 12.4140625 C13.41590088 20.05959004 13.17004788 27.37418297 9.45703125 34.4140625 C6.59177647 38.90499375 3.38912731 41.40447738 -1.54296875 43.4140625 C-8.54019666 44.61195988 -17.37472718 45.07991288 -23.35546875 40.8515625 C-28.18389991 36.27213115 -31.15673867 30.78143336 -31.74609375 24.1171875 C-31.88645169 16.77178883 -30.7387234 11.02046457 -26.23046875 5.1015625 C-19.09913179 -2.02977446 -9.48359074 -2.18515916 0 0 Z " fill="#02C3D8" transform="translate(818.54296875,621.5859375)"/>
<path d="M0 0 C1.21171875 -0.02578125 2.4234375 -0.0515625 3.671875 -0.078125 C10.0963658 0.51102044 14.11351642 3.44273529 18.25 8.25 C22.38201276 14.30044726 21.56405782 18.01869383 22.25 26.25 C12.35 26.25 2.45 26.25 -7.75 26.25 C-7.09 28.56 -6.43 30.87 -5.75 33.25 C-2.10680603 34.46439799 1.45843325 34.86130827 5.25 34.25 C5.86488281 33.75371094 6.47976563 33.25742187 7.11328125 32.74609375 C10.00828839 30.7190595 12.00815805 30.94863559 15.5 31.0625 C17.11648438 31.10310547 17.11648438 31.10310547 18.765625 31.14453125 C19.58546875 31.17933594 20.4053125 31.21414063 21.25 31.25 C19.98911556 37.1341274 17.13400509 40.04704758 12.25 43.25 C5.34002932 46.06517324 -1.55792894 46.39260308 -8.5 43.625 C-13.50504167 41.15305097 -16.3345178 38.08096439 -18.8515625 33.046875 C-20.89710961 26.67899792 -21.0178293 17.93922003 -18.83984375 11.6015625 C-14.39194207 4.1359526 -8.66834727 0.10972591 0 0 Z " fill="#02C1D7" transform="translate(439.75,620.75)"/>
<path d="M0 0 C4.99895617 2.50661945 8.20940545 5.62821636 10 11 C10.09590036 13.41777468 10.13074263 15.83813752 10.1328125 18.2578125 C10.13376923 18.96146942 10.13472595 19.66512634 10.13571167 20.3901062 C10.13639125 21.87449229 10.13455245 23.35888137 10.13037109 24.84326172 C10.12500367 27.12343958 10.13033171 29.40342189 10.13671875 31.68359375 C10.13605824 33.12500044 10.13477765 34.566407 10.1328125 36.0078125 C10.13168457 37.32410645 10.13055664 38.64040039 10.12939453 39.99658203 C10 43 10 43 9 44 C7.33570949 44.09823937 5.66718069 44.12973631 4 44.125 C2.63875 44.12886719 2.63875 44.12886719 1.25 44.1328125 C-1 44 -1 44 -2 43 C-2.13430578 40.8059611 -2.20364545 38.60789211 -2.24609375 36.41015625 C-2.27902929 35.05533201 -2.31224098 33.70051446 -2.34570312 32.34570312 C-2.3931635 30.20162528 -2.43759007 28.05757516 -2.47680664 25.91333008 C-2.51645494 23.84948201 -2.5680139 21.78619634 -2.62109375 19.72265625 C-2.6461499 18.48265869 -2.67120605 17.24266113 -2.69702148 15.96508789 C-2.69666103 12.88229587 -2.69666103 12.88229587 -5 11 C-9.13997567 10.8028583 -12.07703567 10.69234522 -16 12 C-16.87505177 15.82718371 -17.18632495 19.47350909 -17.31640625 23.39453125 C-17.35830078 24.59658203 -17.40019531 25.79863281 -17.44335938 27.03710938 C-17.50233398 28.90592773 -17.50233398 28.90592773 -17.5625 30.8125 C-17.60568359 32.07771484 -17.64886719 33.34292969 -17.69335938 34.64648438 C-17.7992447 37.76421889 -17.90132405 40.88203035 -18 44 C-21.63 44 -25.26 44 -29 44 C-29 29.81 -29 15.62 -29 1 C-25.37 1 -21.74 1 -18 1 C-17.67 1.99 -17.34 2.98 -17 4 C-16.4225 3.34 -15.845 2.68 -15.25 2 C-10.42509055 -0.96917505 -5.53859041 -0.8175313 0 0 Z " fill="#02C1D7" transform="translate(590,621)"/>
<path d="M0 0 C4.57969714 2.23941138 7.71225959 6.73048226 9.5859375 11.3671875 C9.5859375 13.0171875 9.5859375 14.6671875 9.5859375 16.3671875 C5.9559375 16.3671875 2.3259375 16.3671875 -1.4140625 16.3671875 C-1.6821875 15.3978125 -1.9503125 14.4284375 -2.2265625 13.4296875 C-2.6184375 12.4190625 -3.0103125 11.4084375 -3.4140625 10.3671875 C-7.00670702 9.16963933 -9.64123724 9.03623792 -13.4140625 9.3671875 C-15.77903689 11.23427255 -17.07436965 12.68780181 -18.4140625 15.3671875 C-18.94534516 21.6199757 -19.07650689 27.01438417 -15.4140625 32.3671875 C-11.94342632 34.10250559 -8.07452148 33.40032639 -4.4140625 32.3671875 C-3.9603125 31.5215625 -3.5065625 30.6759375 -3.0390625 29.8046875 C-2.5028125 29.0003125 -1.9665625 28.1959375 -1.4140625 27.3671875 C2.28145582 26.90317623 5.87956094 27.08401781 9.5859375 27.3671875 C9.36351867 32.81644888 8.14774522 35.87177911 4.37890625 39.85546875 C-0.65317359 44.09820273 -6.51980917 44.94227249 -12.95703125 44.71484375 C-18.54698131 43.92389692 -22.240302 41.51486443 -26.2265625 37.6171875 C-30.96234062 30.5811743 -32.64318082 23.86464971 -31.4140625 15.3671875 C-29.53301863 9.31475467 -26.38299955 3.94651162 -21.0546875 0.3671875 C-14.61251151 -2.07245311 -6.60825944 -1.73226218 0 0 Z " fill="#02C1D7" transform="translate(497.4140625,621.6328125)"/>
<path d="M0 0 C1.7634375 -0.01160156 1.7634375 -0.01160156 3.5625 -0.0234375 C9.96110379 0.71821885 13.85519608 3.61592548 17.80859375 8.45703125 C19.65980317 11.43717494 19.85813713 13.89935977 20 17.375 C16.27299061 17.72199743 12.71327301 17.91618409 9 17.375 C6.4375 14.4375 6.4375 14.4375 5 11.375 C1.87139505 9.81069752 -0.55602925 10.01872716 -4 10.375 C-6.77113222 13.0427685 -7.89501151 14.70704172 -8.49609375 18.53125 C-8.47675781 19.6346875 -8.45742188 20.738125 -8.4375 21.875 C-8.43556641 23.53015625 -8.43556641 23.53015625 -8.43359375 25.21875 C-7.92015198 28.95623605 -6.69100961 31.68399039 -4 34.375 C0.88736371 34.74866889 0.88736371 34.74866889 5.375 33.0625 C7.24210971 31.36577259 7.24210971 31.36577259 8 28.375 C11.96 28.375 15.92 28.375 20 28.375 C19.86450108 33.7949566 17.65898848 36.78816263 14.08984375 40.60546875 C9.70435347 44.31879042 4.57879667 45.44747492 -1.0625 45.8125 C-8.43130697 44.99374367 -13.03081389 41.94202943 -17.7734375 36.3515625 C-20.74032998 31.57051921 -21.29427073 26.91669771 -21.3125 21.375 C-21.32925781 20.199375 -21.34601562 19.02375 -21.36328125 17.8125 C-20.69411923 11.48064434 -17.74514838 7.45803465 -13 3.375 C-8.51469829 0.71205263 -5.20041546 -0.03421326 0 0 Z " fill="#02C2D8" transform="translate(763,620.625)"/>
<path d="M0 0 C8.27416263 2.25768153 13.89589711 8.14531001 18.12890625 15.4921875 C22.78395924 24.26874284 25.39279474 32.32786481 25.3125 42.25 C25.30686035 42.98943848 25.3012207 43.72887695 25.29541016 44.49072266 C25.02157551 56.99222307 21.04749405 69.95250595 12 79 C8.79898979 81.55022631 5.60986491 84.05947162 2 86 C-1 85 -1 85 -3 82 C-3 81.01 -3 80.02 -3 79 C-1.4609375 77.640625 -1.4609375 77.640625 0.625 76.25 C8.36062255 70.6874587 13.13639909 64.04712663 15.58984375 54.76953125 C17.65089925 40.85249935 16.55251409 27.91180708 8.05078125 16.40625 C4.73216418 12.51240598 0.96519468 9.21891088 -3 6 C-1.125 1.125 -1.125 1.125 0 0 Z " fill="#1C349D" transform="translate(919,71)"/>
<path d="M0 0 C3.88935532 0.17678888 5.67158688 0.72504948 8.6875 3.25 C13.86556947 9.40770423 14.53107521 13.56151207 14.35546875 21.5390625 C13.77603055 27.18062566 11.96457043 30.90445821 8.125 35 C5.32388459 36.31817196 3.05489863 36.20828854 0 36 C-0.495 33.03 -0.495 33.03 -1 30 C-0.236875 29.608125 0.52625 29.21625 1.3125 28.8125 C4.26861379 26.81884186 5.28773209 25.06802256 7 22 C2.54114074 22.10944715 -1.91684156 22.24017666 -6.375 22.375 C-7.64601563 22.4059375 -8.91703125 22.436875 -10.2265625 22.46875 C-12.04414062 22.52675781 -12.04414062 22.52675781 -13.8984375 22.5859375 C-15.57945557 22.63306885 -15.57945557 22.63306885 -17.29443359 22.68115234 C-20.14710412 22.73411203 -20.14710412 22.73411203 -22 25 C-26.0453328 25.4579622 -28.36648352 25.3299565 -32 23.4375 C-34 21 -34 21 -34 17.375 C-33 14 -33 14 -30 12 C-27.23979004 11.62832816 -24.81147524 11.82149364 -22 12 C-21.34 12.66 -20.68 13.32 -20 14 C-17.18597317 14.37239227 -17.18597317 14.37239227 -13.8984375 14.4140625 C-12.68671875 14.45273438 -11.475 14.49140625 -10.2265625 14.53125 C-8.95554687 14.5621875 -7.68453125 14.593125 -6.375 14.625 C-5.09625 14.66367188 -3.8175 14.70234375 -2.5 14.7421875 C0.66652017 14.83671049 3.8330304 14.92226357 7 15 C3.63691084 9.57339117 3.63691084 9.57339117 -2 7 C-1.125 1.125 -1.125 1.125 0 0 Z " fill="#19329D" transform="translate(903,95)"/>
<path d="M0 0 C6.2190761 1.74911515 11.24138793 6.14819665 14.58984375 11.578125 C19.68479482 21.6794193 20.79855311 32.54769922 18.12890625 43.609375 C15.41281934 50.62667495 11.55714336 56.40935378 4.91796875 60.18359375 C3 61 3 61 0.875 60.9375 C-1 60 -1 60 -2.25 57.4375 C-2.4975 56.633125 -2.745 55.82875 -3 55 C-2.46890625 54.63648438 -1.9378125 54.27296875 -1.390625 53.8984375 C4.93191785 49.39881759 9.26825593 44.79284831 11 37 C12.15355262 27.77157904 10.38127062 20.63284829 5 13 C2.51694619 10.6237442 -0.02820934 8.71971642 -3 7 C-2.38722388 4.03824877 -1.74627478 2.61941217 0 0 Z " fill="#172F9A" transform="translate(911,83)"/>
<path d="M0 0 C3.63 0 7.26 0 11 0 C11 14.19 11 28.38 11 43 C7.37 43 3.74 43 0 43 C0 28.81 0 14.62 0 0 Z " fill="#02C3D9" transform="translate(725,622)"/>
<path d="M0 0 C2.69105198 2.17574416 4.45532928 3.91065856 6 7 C7.02766765 18.25380317 7.02766765 18.25380317 4.1875 22.6875 C1.38453368 25.65063583 -0.35827478 25.9286972 -4.375 26.375 C-8 26 -8 26 -10.875 23.625 C-14.01399911 19.74741287 -14.20581919 17.64535028 -14.3125 12.6875 C-14.34988281 11.55699219 -14.38726563 10.42648437 -14.42578125 9.26171875 C-13.91605818 5.35695943 -12.72790817 3.77851871 -10 1 C-6.78305636 -0.60847182 -3.47862778 -0.61309149 0 0 Z " fill="#193AA3" transform="translate(813,630)"/>
<path d="M0 0 C3.8250104 1.70000462 5.47189993 3.1459423 7 7 C7.71923546 13.18355678 7.64062188 18.74132396 4 24 C0.33091443 26.44605705 -2.73618769 26.83946402 -7 26 C-9.69105198 23.82425584 -11.45532928 22.08934144 -13 19 C-14.02929918 7.72833034 -14.02929918 7.72833034 -11.125 3.3125 C-7.60744589 -0.51542654 -5.10839532 -0.34633189 0 0 Z " fill="#1A39A3" transform="translate(536,630)"/>
<path d="M0 0 C2.968533 1.79569742 5.42401036 3.84802072 7 7 C7.53013375 13.23926648 7.68427506 18.67826936 4 24 C0.32317905 26.45121397 -2.72920963 26.82418762 -7 26 C-9.70896155 23.92505073 -11.41255817 22.31044715 -12.8125 19.1875 C-13.40335025 12.29424709 -13.49079959 7.41331795 -9.3125 1.6875 C-5.98675361 -0.73939601 -4.03108312 -0.6255129 0 0 Z " fill="#193AA3" transform="translate(630,630)"/>
<path d="M0 0 C0.79587021 0.00718552 1.59174042 0.01437103 2.41172791 0.02177429 C3.22778 0.02223251 4.04383209 0.02269073 4.88461304 0.02316284 C6.61038161 0.0261856 8.33614744 0.03407262 10.06187439 0.0464325 C12.71309498 0.06469327 15.36396661 0.06694218 18.01524353 0.06669617 C19.68907469 0.0716111 21.36290348 0.07743932 23.03672791 0.08427429 C24.23356956 0.08594353 24.23356956 0.08594353 25.45458984 0.08764648 C31.04177264 0.13619403 31.04177264 0.13619403 32.15782166 1.25224304 C32.25551218 3.69334324 32.2877855 6.10611596 32.27807617 8.54766846 C32.2789306 9.32031428 32.27978502 10.0929601 32.28066534 10.88901943 C32.28232248 13.49782858 32.27679497 16.10657451 32.27134705 18.71537781 C32.2710652 20.57757058 32.27122286 22.43976347 32.27178955 24.30195618 C32.27207762 29.3740589 32.26617937 34.44613819 32.25921559 39.51823545 C32.25298363 44.81270305 32.25237838 50.10717114 32.25119019 55.40164185 C32.2480764 65.43495729 32.23986239 75.46826189 32.2298407 85.50157255 C32.21868101 96.92096589 32.21316947 108.34035973 32.20814526 119.75975716 C32.19767981 143.25725847 32.18007947 166.75475015 32.15782166 190.25224304 C31.82782166 190.25224304 31.49782166 190.25224304 31.15782166 190.25224304 C31.15782166 128.21224304 31.15782166 66.17224304 31.15782166 2.25224304 C18.94782166 2.25224304 6.73782166 2.25224304 -5.84217834 2.25224304 C-5.84217834 23.37224304 -5.84217834 44.49224304 -5.84217834 66.25224304 C-11.46717834 60.62724304 -11.46717834 60.62724304 -13.84217834 57.25224304 C-9.96717834 59.12724304 -9.96717834 59.12724304 -8.84217834 60.25224304 C-8.83409149 59.53005585 -8.82600464 58.80786865 -8.81767273 58.063797 C-8.73980542 51.26541294 -8.65253881 44.46720791 -8.55465126 37.66908455 C-8.50465661 34.17389538 -8.45832721 30.67873691 -8.42030334 27.18339539 C-8.3764529 23.16708597 -8.31678875 19.15114818 -8.25624084 15.13505554 C-8.23891403 13.2475206 -8.23891403 13.2475206 -8.22123718 11.32185364 C-8.20136749 10.16080109 -8.1814978 8.99974854 -8.161026 7.80351257 C-8.14770233 6.77759003 -8.13437866 5.75166748 -8.12065125 4.69465637 C-7.53688203 -0.4254315 -4.42232228 0.01845138 0 0 Z " fill="#071D8C" transform="translate(468.84217834472656,388.7477569580078)"/>
<path d="M0 0 C2.93897429 0.28750835 4.51068984 0.97414387 6.54492188 3.12939453 C15.125 14.11643487 15.125 14.11643487 15.125 17.625 C11.7442314 17.91533318 8.49533239 18.0754375 5.125 17.625 C2.625 15.125 2.625 15.125 1.125 12.625 C0.465 12.625 -0.195 12.625 -0.875 12.625 C-1.37 13.45 -1.865 14.275 -2.375 15.125 C-4.875 17.625 -4.875 17.625 -7.359375 17.95703125 C-9.88065931 17.93922557 -12.36328825 17.84070044 -14.875 17.625 C-12.30465962 10.59511906 -8.15313598 1.27312376 0 0 Z " fill="#03C3D9" transform="translate(624.875,599.375)"/>
<path d="M0 0 C1.81242052 -0.02687279 3.62495233 -0.04633715 5.4375 -0.0625 C6.44683594 -0.07410156 7.45617187 -0.08570313 8.49609375 -0.09765625 C11 0 11 0 12 1 C12.22623521 2.48437809 12.39412965 3.97777425 12.53515625 5.47265625 C12.62216797 6.37177734 12.70917969 7.27089844 12.79882812 8.19726562 C12.88583984 9.14279297 12.97285156 10.08832031 13.0625 11.0625 C13.15337891 12.01189453 13.24425781 12.96128906 13.33789062 13.93945312 C13.56256229 16.29259322 13.78178577 18.6462523 14 21 C14.66 18.03 15.32 15.06 16 12 C16.66 12 17.32 12 18 12 C18 18.93 18 25.86 18 33 C16.68 31.68 15.36 30.36 14 29 C13.95101562 30.07121094 13.90203125 31.14242187 13.8515625 32.24609375 C13.77654706 33.64325639 13.7009987 35.0403905 13.625 36.4375 C13.5940625 37.14455078 13.563125 37.85160156 13.53125 38.58007812 C13.42719371 40.39239188 13.22080108 42.19817988 13 44 C12.01 44.495 12.01 44.495 11 45 C10.67 30.81 10.34 16.62 10 2 C6.7 1.67 3.4 1.34 0 1 C0 0.67 0 0.34 0 0 Z " fill="#14329C" transform="translate(725,620)"/>
<path d="M0 0 C1.9375 1.125 1.9375 1.125 3 3 C3.42478586 7.07794425 3.31282587 8.53076119 1 12 C-1.09375 12.3984375 -1.09375 12.3984375 -3.5 12.375 C-4.2940625 12.38273438 -5.088125 12.39046875 -5.90625 12.3984375 C-6.5971875 12.26695312 -7.288125 12.13546875 -8 12 C-10.31282587 8.53076119 -10.42478586 7.07794425 -10 3 C-7.72054654 -1.02256493 -4.21158603 -0.45124136 0 0 Z " fill="#02C3D9" transform="translate(734,602)"/>
<path d="M0 0 C3.98619136 0.18119052 5.69327301 0.73509942 8.75 3.375 C11 6 11 6 13 9 C12.625 11.1875 12.625 11.1875 12 13 C11.34 11.35 10.68 9.7 10 8 C9.34 10.64 8.68 13.28 8 16 C-1.57 16 -11.14 16 -21 16 C-20.67 15.34 -20.34 14.68 -20 14 C-6.635 14.495 -6.635 14.495 7 15 C3.4294195 9.08869687 3.4294195 9.08869687 -2 7 C-1.125 1.125 -1.125 1.125 0 0 Z " fill="#142792" transform="translate(903,95)"/>
<path d="M0 0 C2.25 0.625 2.25 0.625 4 2 C4.66 3.98 5.32 5.96 6 8 C0.39 8 -5.22 8 -11 8 C-9.37918618 1.51674471 -6.7525704 -0.8440713 0 0 Z " fill="#1A359E" transform="translate(443,630)"/>
<path d="M0 0 C9.9 0 19.8 0 30 0 C30 1.65 30 3.3 30 5 C25.38 5 20.76 5 16 5 C16.66 4.67 17.32 4.34 18 4 C18 3.34 18 2.68 18 2 C12.39 1.67 6.78 1.34 1 1 C1.33 2.32 1.66 3.64 2 5 C1.34 4.67 0.68 4.34 0 4 C0 2.68 0 1.36 0 0 Z " fill="#14319A" transform="translate(432,647)"/>
<path d="M0 0 C4.99421218 4.49506572 7.60578426 10.7322868 8.21832275 17.36352539 C8.44342153 23.83337486 8.11874837 30.28777857 7.8125 36.75 C7.73906434 38.71865934 7.66808076 40.68741175 7.59960938 42.65625 C7.42799493 47.4390421 7.22323709 52.21935071 7 57 C6.67 57 6.34 57 6 57 C5.98541748 55.95247559 5.97083496 54.90495117 5.95581055 53.82568359 C5.8970281 49.87045239 5.81981542 45.91574406 5.73754883 41.9609375 C5.70466975 40.26213178 5.67652795 38.5632265 5.65356445 36.86425781 C5.47431843 23.94328952 4.24648657 12.32182909 0 0 Z " fill="#0E3599" transform="translate(792,503)"/>
<path d="M0 0 C3.83146596 1.56096761 6.28148054 3.91411305 9 7 C9.875 9.1875 9.875 9.1875 10 11 C9.67 11.66 9.34 12.32 9 13 C5.96147295 11.59023295 3.4060405 9.91129772 0.75 7.875 C0.04359375 7.33617188 -0.6628125 6.79734375 -1.390625 6.2421875 C-1.92171875 5.83226563 -2.4528125 5.42234375 -3 5 C-2.01 3.35 -1.02 1.7 0 0 Z " fill="#1E3AA3" transform="translate(911,83)"/>
<path d="M0 0 C1.61648438 0.04060547 1.61648438 0.04060547 3.265625 0.08203125 C4.08546875 0.11683594 4.9053125 0.15164063 5.75 0.1875 C4.65931332 3.96295388 3.8416909 6.65793472 0.75 9.1875 C0.09 8.8575 -0.57 8.5275 -1.25 8.1875 C0.07 6.5375 1.39 4.8875 2.75 3.1875 C1.3129191 3.13327053 -0.12475462 3.09460277 -1.5625 3.0625 C-2.76326172 3.02769531 -2.76326172 3.02769531 -3.98828125 2.9921875 C-6.53388576 3.02932678 -6.53388576 3.02932678 -9.25 5.1875 C-11.73046875 5.3828125 -11.73046875 5.3828125 -14.4375 5.3125 C-15.33855469 5.29445313 -16.23960937 5.27640625 -17.16796875 5.2578125 C-17.85503906 5.23460937 -18.54210937 5.21140625 -19.25 5.1875 C-19.58 4.5275 -19.91 3.8675 -20.25 3.1875 C-19.23679687 3.23970703 -19.23679687 3.23970703 -18.203125 3.29296875 C-16.86507813 3.33357422 -16.86507813 3.33357422 -15.5 3.375 C-14.61828125 3.40980469 -13.7365625 3.44460938 -12.828125 3.48046875 C-10.18618111 3.4061259 -10.18618111 3.4061259 -8.3125 1.6875 C-5.4730452 -0.37755803 -3.46377616 -0.11294922 0 0 Z " fill="#0ACAE0" transform="translate(455.25,651.8125)"/>
<path d="M0 0 C5.75 1.625 5.75 1.625 8 5 C6.02 4.34 4.04 3.68 2 3 C3.27721526 7.99275057 5.17330957 10.57611908 9 14 C8.67 14.66 8.34 15.32 8 16 C7.54109375 15.52949219 7.0821875 15.05898437 6.609375 14.57421875 C2.08450705 9.96631602 2.08450705 9.96631602 -3 6 C-1.125 1.125 -1.125 1.125 0 0 Z " fill="#14288F" transform="translate(919,71)"/>
<path d="M0 0 C0.33 0 0.66 0 1 0 C1.33 2.97 1.66 5.94 2 9 C2.66 8.67 3.32 8.34 4 8 C6 10 6 10 6.25 13.4375 C6 17 6 17 4 20 C3.67 18.68 3.34 17.36 3 16 C1.68 15.67 0.36 15.34 -1 15 C-0.67 10.05 -0.34 5.1 0 0 Z " fill="#0F2694" transform="translate(937,110)"/>
<path d="M0 0 C0.33 0 0.66 0 1 0 C1.04898438 0.71027344 1.09796875 1.42054688 1.1484375 2.15234375 C1.22320313 3.07144531 1.29796875 3.99054687 1.375 4.9375 C1.44460938 5.85402344 1.51421875 6.77054688 1.5859375 7.71484375 C1.72257813 8.46894531 1.85921875 9.22304688 2 10 C2.66 10.33 3.32 10.66 4 11 C4 12.65 4 14.3 4 16 C7.63 16.33 11.26 16.66 15 17 C14.67 17.66 14.34 18.32 14 19 C6.75898264 19.61364554 6.75898264 19.61364554 3.0625 16.625 C-0.00784614 12.71728674 -0.11491986 10.80246646 -0.0625 5.875 C-0.05347656 4.77929688 -0.04445313 3.68359375 -0.03515625 2.5546875 C-0.02355469 1.71164062 -0.01195312 0.86859375 0 0 Z " fill="#0F3D9E" transform="translate(523,637)"/>
<path d="M0 0 C0.36504603 1.58086048 0.71660506 3.16483907 1.0625 4.75 C1.25972656 5.63171875 1.45695312 6.5134375 1.66015625 7.421875 C1.99825872 9.98679028 1.81158635 11.57091639 1 14 C0 13 0 13 -0.0625 10.4375 C-0.041875 9.633125 -0.02125 8.82875 0 8 C-0.66 8 -1.32 8 -2 8 C-2.33 7.34 -2.66 6.68 -3 6 C-3.66 5.67 -4.32 5.34 -5 5 C-3.33333333 0 -3.33333333 0 0 0 Z " fill="#192D96" transform="translate(312,564)"/>
<path d="M0 0 C-0.66 2.31 -1.32 4.62 -2 7 C-4.31 7.33 -6.62 7.66 -9 8 C-8.67 7.01 -8.34 6.02 -8 5 C-7.34 5 -6.68 5 -6 5 C-5.71125 4.360625 -5.4225 3.72125 -5.125 3.0625 C-3.72314735 0.49243681 -2.91896073 0 0 0 Z " fill="#223FA6" transform="translate(914,122)"/>
<path d="M0 0 C3.37462715 0.54723683 5.08235 1.0549 8 3 C7.34 4.65 6.68 6.3 6 8 C4.68 7.34 3.36 6.68 2 6 C2 4.35 2 2.7 2 1 C1.34 0.67 0.68 0.34 0 0 Z " fill="#1F3CA7" transform="translate(919,73)"/>
<path d="M0 0 C0 0.99 0 1.98 0 3 C-0.66 2.67 -1.32 2.34 -2 2 C-1.34 1.34 -0.68 0.68 0 0 Z M-1 4 C-1.66 4.66 -2.32 5.32 -3 6 C-3.69748583 7.31747324 -4.36959957 8.64914193 -5 10 C-5.99 8.02 -6.98 6.04 -8 4 C-5.3333581 2.66667905 -3.83319697 3.32897967 -1 4 Z " fill="#203DA5" transform="translate(917,133)"/>
<path d="M0 0 C-2.58403608 2.53835868 -3.76068358 2.99485632 -7.453125 3.07421875 C-8.70609375 2.94660156 -9.9590625 2.81898438 -11.25 2.6875 C-13.14492188 2.50767578 -13.14492188 2.50767578 -15.078125 2.32421875 C-16.04234375 2.21722656 -17.0065625 2.11023438 -18 2 C-18 1.67 -18 1.34 -18 1 C-11.93303301 0.22959149 -6.11485027 -0.09706112 0 0 Z " fill="#182798" transform="translate(640,618)"/>
<path d="M0 0 C0.66 0.33 1.32 0.66 2 1 C-3.04140164 3.81532819 -7.22621075 5.5188509 -13 6 C-10.58149856 2.67456052 -7.65684985 2.24000164 -3.83984375 1.4296875 C-1.91873605 1.05606754 -1.91873605 1.05606754 0 0 Z " fill="#14319B" transform="translate(877,430)"/>
<path d="M0 0 C1.9375 0.8125 1.9375 0.8125 4 2 C4.33 2.99 4.66 3.98 5 5 C4.34 5 3.68 5 3 5 C3 4.34 3 3.68 3 3 C1.02 4.32 -0.96 5.64 -3 7 C-3.66 6.67 -4.32 6.34 -5 6 C-3.35 4.02 -1.7 2.04 0 0 Z " fill="#13379D" transform="translate(624,611)"/>
<path d="M0 0 C0.99 0.66 1.98 1.32 3 2 C3 2.99 3 3.98 3 5 C0.125 5.125 0.125 5.125 -3 5 C-3.66 4.34 -4.32 3.68 -5 3 C-3.35 2.01 -1.7 1.02 0 0 Z " fill="#1E369B" transform="translate(186,486)"/>
<path d="M0 0 C0.99 0.33 1.98 0.66 3 1 C-0.96 4.465 -0.96 4.465 -5 8 C-5.66 7.34 -6.32 6.68 -7 6 C-5.90716423 4.96704564 -4.80029421 3.94892165 -3.6875 2.9375 C-3.07261719 2.36902344 -2.45773437 1.80054688 -1.82421875 1.21484375 C-0.92123047 0.61349609 -0.92123047 0.61349609 0 0 Z " fill="#05CBDE" transform="translate(431,622)"/>
<path d="M0 0 C0.33 0 0.66 0 1 0 C1.37211538 7.56634615 1.37211538 7.56634615 -0.51171875 9.76171875 C-1.00285156 10.17035156 -1.49398438 10.57898438 -2 11 C-2.05399736 9.54207116 -2.09279177 8.08357288 -2.125 6.625 C-2.15980469 5.40683594 -2.15980469 5.40683594 -2.1953125 4.1640625 C-2 2 -2 2 0 0 Z " fill="#12278E" transform="translate(309,478)"/>
<path d="M0 0 C0.33 0.66 0.66 1.32 1 2 C-0.91522803 6.03205902 -1.85351878 6.92675939 -6 9 C-4.02 6.03 -2.04 3.06 0 0 Z " fill="#06CCE1" transform="translate(938,444)"/>
<path d="M0 0 C2.64 0.33 5.28 0.66 8 1 C8 1.66 8 2.32 8 3 C8.66 3 9.32 3 10 3 C10 3.66 10 4.32 10 5 C6.08788267 3.84414715 3.1254959 2.64465038 0 0 Z " fill="#0F3FA1" transform="translate(888,313)"/>
<path d="M0 0 C3.0916909 2.52956528 3.90931332 5.22454612 5 9 C3.62437146 7.71034824 2.29233607 6.37310707 1 5 C1 4.34 1 3.68 1 3 C0.34 3 -0.32 3 -1 3 C-0.67 2.01 -0.34 1.02 0 0 Z " fill="#192C92" transform="translate(863,143)"/>
</svg>
