<svg version="1.1" xmlns="http://www.w3.org/2000/svg" xmlns:xlink="http://www.w3.org/1999/xlink" width="512.000000pt" height="512.000000pt" viewBox="0,0,256,256"><g fill="#c9ddff" fill-rule="nonzero" stroke="none" stroke-width="1" stroke-linecap="butt" stroke-linejoin="miter" stroke-miterlimit="10" stroke-dasharray="" stroke-dashoffset="0" font-family="none" font-weight="none" font-size="none" text-anchor="none" style="mix-blend-mode: normal"><g transform="translate(0.03906,-0.04207) scale(0.5,0.5)"><g transform="translate(0,512) scale(0.1,-0.1)"><path d="M2390,5109c-623,-69 -1147,-535 -1288,-1145c-34,-147 -42,-266 -42,-647c0,-403 3,-430 63,-509c18,-24 56,-56 84,-73l51,-30l4,-95c5,-113 26,-168 88,-230c59,-59 118,-83 218,-88l83,-5l26,-51c34,-68 76,-129 135,-198l49,-57l-85,-169l-85,-169l-288,-97c-378,-128 -491,-188 -675,-364c-249,-239 -400,-535 -453,-887c-8,-55 -15,-128 -15,-162c0,-55 4,-67 29,-95l29,-33l2236,-3l2236,-2l32,28c27,25 32,37 36,89c2,32 -3,109 -12,170c-53,358 -203,654 -454,895c-184,176 -297,236 -675,364l-288,97l-85,169l-85,169l49,57c126,147 210,324 246,517c9,50 19,100 21,111c5,21 11,22 132,26c104,3 137,8 174,25c60,27 125,92 153,152c20,44 21,62 24,416c2,224 -1,413 -8,480c-35,351 -176,652 -423,904c-324,331 -776,491 -1237,440zM2805,4895c270,-56 481,-170 671,-359c209,-209 333,-461 372,-753l9,-63h-97h-96l-13,102c-43,349 -248,639 -559,793c-160,79 -292,105 -532,105c-240,0 -372,-26 -532,-105c-311,-154 -516,-444 -559,-793l-13,-102h-97c-87,0 -97,2 -94,18c2,9 9,53 15,97c25,166 95,344 201,506c73,112 240,281 347,352c154,103 354,183 512,206c41,6 86,13 100,15c52,9 288,-3 365,-19zM2792,4506c147,-29 253,-78 369,-171c180,-145 283,-356 296,-603l6,-113l-44,7c-119,17 -295,57 -375,85c-195,68 -407,191 -544,316c-92,83 -108,93 -160,93c-101,0 -279,-44 -374,-92c-83,-42 -173,-106 -235,-169l-64,-64l6,48c17,124 91,280 186,395c111,133 293,237 476,271c82,15 374,13 457,-3zM2367,3877c267,-236 593,-384 977,-441c54,-8 101,-17 103,-20c8,-8 -15,-296 -37,-480c-54,-439 -100,-579 -247,-761c-95,-117 -256,-222 -403,-262c-90,-25 -310,-25 -400,0c-158,43 -324,156 -427,292c-29,38 -53,73 -53,77c0,5 44,8 98,8l97,-1l30,-51c37,-65 99,-113 171,-134c85,-24 342,-17 405,13c60,27 125,92 152,152c30,64 30,178 0,242c-27,60 -92,125 -152,152c-63,30 -320,37 -405,13c-72,-21 -134,-69 -171,-134l-30,-51l-147,-1c-82,0 -148,3 -148,8c0,4 -7,39 -15,77c-35,170 -79,541 -91,765l-6,125l79,105c44,58 110,133 147,167c109,100 262,167 413,182c7,0 34,-18 60,-42zM1464,3473c3,-27 8,-102 11,-168c4,-66 13,-178 21,-250c7,-71 14,-138 14,-148c0,-17 -8,-19 -95,-15c-88,3 -97,5 -122,31l-28,27l-3,285l-3,285h100h99zM3858,3235l-3,-285l-28,-27c-25,-26 -34,-28 -122,-31c-87,-4 -95,-2 -95,15c0,10 7,77 14,148c8,72 17,186 21,255c3,69 8,144 11,168l5,42h100h100zM1545,2668c2,-13 9,-51 15,-86c6,-35 14,-70 17,-79c10,-25 -56,-8 -87,22c-20,21 -25,37 -28,95l-4,70h41c34,0 41,-4 46,-22zM2627,2458c41,-42 39,-100 -6,-140l-33,-30l-134,4c-128,3 -135,4 -159,29c-37,36 -43,87 -15,122c34,42 53,47 192,44c124,-2 128,-3 155,-29zM3186,1689l66,-132l-27,-75c-36,-100 -107,-267 -157,-366l-40,-79l-169,169l-169,169l43,45c24,25 119,125 211,223c93,97 170,177 172,177c2,0 33,-59 70,-131zM2253,1203c-86,-90 -158,-163 -160,-163c-9,0 -131,267 -178,389l-48,123l59,119l58,119l213,-212l212,-211zM2571,1695h147l-81,-85c-45,-47 -84,-86 -87,-88c-3,-1 -48,41 -100,93c-91,91 -93,95 -60,88c19,-5 101,-8 181,-8zM1750,1300c106,-264 249,-527 435,-800c51,-74 115,-172 144,-218l51,-82h-958h-959l9,68c53,399 303,770 643,954c76,41 546,209 573,205c7,-1 35,-58 62,-127zM3674,1350c131,-44 274,-99 319,-122c344,-179 602,-556 655,-960l9,-68h-959h-958l51,82c29,46 93,144 144,218c182,267 314,507 417,760c31,74 58,143 61,153c4,9 10,17 15,17c5,0 115,-36 246,-80zM2737,1038c101,-101 183,-187 183,-192c0,-5 -48,-81 -107,-168c-60,-88 -138,-208 -176,-266c-37,-59 -72,-107 -77,-107c-5,0 -40,48 -77,107c-38,58 -117,179 -177,267c-59,89 -106,167 -103,174c6,15 337,367 346,367c3,0 88,-82 188,-182z"></path><path d="M3624,1150c-32,-13 -64,-59 -64,-91c0,-40 46,-88 91,-95c31,-5 42,-1 70,24c28,25 34,37 34,72c0,35 -6,47 -33,71c-33,29 -60,35 -98,19z"></path><path d="M3975,961c-36,-15 -60,-51 -60,-91c0,-35 9,-47 96,-137c54,-56 114,-130 139,-171c48,-82 83,-107 135,-98c38,7 62,31 74,74c17,58 -70,202 -200,331c-95,95 -131,113 -184,92z"></path></g></g></g></svg>